<svg width="458" height="108" viewBox="0 0 458 108" fill="none" xmlns="http://www.w3.org/2000/svg">
<g filter="url(#filter0_d_27076_119)">
<path d="M15.15 4.23C17.05 4.23 18.93 4.58 20.79 5.28L19.83 10.17L18.99 10.53C18.15 10.01 17.32 9.6 16.5 9.3C15.68 9 15.02 8.85 14.52 8.85C14.06 8.85 13.69 8.94 13.41 9.12C13.15 9.3 13.02 9.54 13.02 9.84C13.02 10.22 13.22 10.55 13.62 10.83C14.04 11.09 14.73 11.44 15.69 11.88C16.81 12.38 17.73 12.85 18.45 13.29C19.17 13.71 19.8 14.3 20.34 15.06C20.88 15.8 21.15 16.72 21.15 17.82C21.15 19.04 20.81 20.15 20.13 21.15C19.47 22.13 18.52 22.91 17.28 23.49C16.04 24.07 14.6 24.36 12.96 24.36C10.92 24.36 8.78 23.98 6.54 23.22L7.41 18L8.01 17.64C8.93 18.34 9.91 18.9 10.95 19.32C12.01 19.72 12.89 19.92 13.59 19.92C14.15 19.92 14.55 19.83 14.79 19.65C15.05 19.45 15.18 19.21 15.18 18.93C15.18 18.51 14.96 18.16 14.52 17.88C14.1 17.58 13.41 17.22 12.45 16.8C11.35 16.32 10.44 15.87 9.72 15.45C9.02 15.01 8.41 14.42 7.89 13.68C7.37 12.92 7.11 11.99 7.11 10.89C7.11 9.63 7.45 8.5 8.13 7.5C8.81 6.48 9.76 5.68 10.98 5.1C12.2 4.52 13.59 4.23 15.15 4.23ZM37.3596 19.2L37.6896 19.62L37.3296 24H23.6496L23.9496 18.3L23.6496 4.59H37.5696L37.8996 5.01L37.5096 9.39L32.7396 9.21H29.6496L29.5896 11.94H32.5596L35.6796 11.85L36.0096 12.27L35.6496 16.65L32.1696 16.56H29.4696L29.4396 17.7L29.4996 19.38H32.3796L37.3596 19.2ZM47.163 17.61L47.223 20.28C47.223 21.54 47.013 22.6 46.593 23.46C46.173 24.32 45.473 25.06 44.493 25.68C43.533 26.3 42.193 26.86 40.473 27.36L38.913 24.27V23.79C39.933 23.29 40.643 22.77 41.043 22.23C41.463 21.69 41.673 20.98 41.673 20.1V18.21L41.463 8.82L38.913 8.91L38.583 8.52L38.823 4.59H47.493L47.163 17.61ZM67.7522 24H61.6622L61.1222 20.79L61.0922 20.7L58.1522 20.64L55.6922 20.76L55.1822 24H49.3022L55.1822 4.59H62.4422L67.7522 24ZM60.1922 16.32L58.8722 9.96H58.5122L56.8322 16.32L58.5122 16.35L60.1922 16.32Z" fill="#021B2B"/>
<path d="M20.79 5.28L21.7713 5.47264L21.9343 4.64218L21.1422 4.34408L20.79 5.28ZM19.83 10.17L20.2239 11.0891L20.7095 10.881L20.8113 10.3626L19.83 10.17ZM18.99 10.53L18.4636 11.3803L18.9059 11.654L19.3839 11.4491L18.99 10.53ZM13.41 9.12L12.8692 8.27882L12.8549 8.28807L12.8408 8.29781L13.41 9.12ZM13.62 10.83L13.0465 11.6492L13.0697 11.6654L13.0936 11.6803L13.62 10.83ZM15.69 11.88L15.2733 12.7891L15.2823 12.7931L15.69 11.88ZM18.45 13.29L17.9286 14.1433L17.9373 14.1486L17.9461 14.1538L18.45 13.29ZM20.34 15.06L19.5248 15.6393L19.5322 15.6495L20.34 15.06ZM20.13 21.15L19.3031 20.5877L19.3006 20.5914L20.13 21.15ZM17.28 23.49L17.7037 24.3958L17.28 23.49ZM6.54 23.22L5.55361 23.0556L5.41389 23.8939L6.2187 24.167L6.54 23.22ZM7.41 18L6.8955 17.1425L6.49952 17.3801L6.42361 17.8356L7.41 18ZM8.01 17.64L8.61552 16.8442L8.0764 16.434L7.4955 16.7825L8.01 17.64ZM10.95 19.32L10.5755 20.2472L10.5862 20.2515L10.5969 20.2556L10.95 19.32ZM14.79 19.65L15.39 20.4501L15.3997 20.4426L14.79 19.65ZM14.52 17.88L13.9388 18.6937L13.9605 18.7093L13.9831 18.7237L14.52 17.88ZM12.45 16.8L12.8508 15.8838L12.8499 15.8835L12.45 16.8ZM9.72 15.45L9.18783 16.2966L9.20184 16.3054L9.21613 16.3138L9.72 15.45ZM7.89 13.68L7.06463 14.2447L7.07181 14.2549L7.89 13.68ZM8.13 7.5L8.95696 8.06233L8.96205 8.0547L8.13 7.5ZM10.98 5.1L10.5506 4.19686L10.5506 4.19686L10.98 5.1ZM15.15 5.23C16.9242 5.23 18.6851 5.55632 20.4378 6.21591L21.1422 4.34408C19.1749 3.60368 17.1758 3.23 15.15 3.23V5.23ZM19.8087 5.08736L18.8487 9.97736L20.8113 10.3626L21.7713 5.47264L19.8087 5.08736ZM19.4361 9.25085L18.5961 9.61085L19.3839 11.4491L20.2239 11.0891L19.4361 9.25085ZM19.5164 9.67973C18.626 9.12857 17.7351 8.68702 16.8436 8.36088L16.1564 10.2391C16.905 10.513 17.674 10.8914 18.4636 11.3803L19.5164 9.67973ZM16.8436 8.36088C15.983 8.04602 15.1935 7.85 14.52 7.85V9.85C14.8465 9.85 15.377 9.95398 16.1564 10.2391L16.8436 8.36088ZM14.52 7.85C13.9389 7.85 13.3611 7.96261 12.8692 8.27882L13.9508 9.96118C14.0189 9.91739 14.1811 9.85 14.52 9.85V7.85ZM12.8408 8.29781C12.3283 8.65261 12.02 9.19136 12.02 9.84H14.02C14.02 9.83757 14.0202 9.84529 14.0166 9.8603C14.0129 9.87575 14.0064 9.89358 13.9968 9.91128C13.976 9.94969 13.9578 9.95702 13.9792 9.94219L12.8408 8.29781ZM12.02 9.84C12.02 10.6376 12.464 11.2414 13.0465 11.6492L14.1935 10.0108C14.0781 9.93002 14.0368 9.87335 14.0252 9.8542C14.0198 9.84529 14.0195 9.84245 14.02 9.84449C14.0206 9.84663 14.02 9.84613 14.02 9.84H12.02ZM13.0936 11.6803C13.57 11.9751 14.308 12.3466 15.2733 12.7891L16.1067 10.9709C15.152 10.5334 14.51 10.2049 14.1464 9.97973L13.0936 11.6803ZM15.2823 12.7931C16.379 13.2827 17.2575 13.7332 17.9286 14.1433L18.9714 12.4367C18.2025 11.9668 17.241 11.4773 16.0977 10.9669L15.2823 12.7931ZM17.9461 14.1538C18.5295 14.4941 19.0574 14.9813 19.5248 15.6392L21.1552 14.4808C20.5426 13.6187 19.8105 12.9259 18.9539 12.4262L17.9461 14.1538ZM19.5322 15.6495C19.9238 16.1862 20.15 16.8883 20.15 17.82H22.15C22.15 16.5517 21.8362 15.4138 21.1478 14.4705L19.5322 15.6495ZM20.15 17.82C20.15 18.8413 19.8692 19.7551 19.3031 20.5877L20.9569 21.7123C21.7508 20.5449 22.15 19.2387 22.15 17.82H20.15ZM19.3006 20.5914C18.757 21.3985 17.9585 22.0686 16.8563 22.5842L17.7037 24.3958C19.0815 23.7514 20.183 22.8615 20.9594 21.7086L19.3006 20.5914ZM16.8563 22.5842C15.7726 23.0911 14.4822 23.36 12.96 23.36V25.36C14.7178 25.36 16.3074 25.0489 17.7037 24.3958L16.8563 22.5842ZM12.96 23.36C11.0451 23.36 9.01399 23.0034 6.8613 22.273L6.2187 24.167C8.54601 24.9566 10.7949 25.36 12.96 25.36V23.36ZM7.52639 23.3844L8.39639 18.1644L6.42361 17.8356L5.55361 23.0556L7.52639 23.3844ZM7.9245 18.8575L8.5245 18.4975L7.4955 16.7825L6.8955 17.1425L7.9245 18.8575ZM7.40448 18.4358C8.39312 19.1881 9.4505 19.7929 10.5755 20.2472L11.3245 18.3928C10.3695 18.0071 9.46688 17.4919 8.61552 16.8442L7.40448 18.4358ZM10.5969 20.2556C11.7088 20.6752 12.7179 20.92 13.59 20.92V18.92C13.0621 18.92 12.3112 18.7648 11.3031 18.3844L10.5969 20.2556ZM13.59 20.92C14.2042 20.92 14.8812 20.8316 15.39 20.45L14.19 18.85C14.2164 18.8302 14.2002 18.8522 14.0905 18.8769C13.9833 18.901 13.821 18.92 13.59 18.92V20.92ZM15.3997 20.4426C15.8582 20.0899 16.18 19.5759 16.18 18.93H14.18C14.18 18.9219 14.181 18.9078 14.1855 18.89C14.19 18.872 14.1965 18.8561 14.2032 18.8437C14.217 18.8183 14.2213 18.8259 14.1803 18.8574L15.3997 20.4426ZM16.18 18.93C16.18 18.0831 15.7054 17.449 15.0569 17.0363L13.9831 18.7237C14.1098 18.8043 14.1551 18.8636 14.1684 18.8847C14.1765 18.8976 14.18 18.9051 14.18 18.93H16.18ZM15.1012 17.0663C14.5927 16.703 13.8234 16.3094 12.8508 15.8838L12.0492 17.7162C12.9966 18.1306 13.6073 18.457 13.9388 18.6937L15.1012 17.0663ZM12.8499 15.8835C11.7715 15.4129 10.8992 14.9802 10.2239 14.5862L9.21613 16.3138C9.98076 16.7598 10.9285 17.2271 12.0501 17.7165L12.8499 15.8835ZM10.2522 14.6034C9.67476 14.2404 9.15905 13.7467 8.70819 13.1051L7.07181 14.2549C7.66095 15.0933 8.36524 15.7796 9.18783 16.2966L10.2522 14.6034ZM8.71531 13.1153C8.32975 12.5518 8.11 11.8284 8.11 10.89H6.11C6.11 12.1516 6.41025 13.2882 7.06469 14.2447L8.71531 13.1153ZM8.11 10.89C8.11 9.82164 8.39461 8.88925 8.95693 8.06231L7.30307 6.93769C6.50539 8.11075 6.11 9.43836 6.11 10.89H8.11ZM8.96205 8.0547C9.53175 7.20015 10.3355 6.51367 11.4094 6.00313L10.5506 4.19686C9.18453 4.84633 8.08825 5.75985 7.29795 6.9453L8.96205 8.0547ZM11.4094 6.00313C12.4759 5.49608 13.7156 5.23 15.15 5.23V3.23C13.4644 3.23 11.9241 3.54392 10.5506 4.19686L11.4094 6.00313ZM37.3596 19.2L38.1459 18.5822L37.8317 18.1823L37.3235 18.2007L37.3596 19.2ZM37.6896 19.62L38.6862 19.7019L38.7184 19.3108L38.4759 19.0022L37.6896 19.62ZM37.3296 24V25H38.2508L38.3262 24.0819L37.3296 24ZM23.6496 24L22.651 23.9474L22.5956 25H23.6496V24ZM23.9496 18.3L24.9482 18.3526L24.9502 18.3154L24.9494 18.2781L23.9496 18.3ZM23.6496 4.59V3.59H22.6275L22.6498 4.61188L23.6496 4.59ZM37.5696 4.59L38.3559 3.97218L38.0556 3.59H37.5696V4.59ZM37.8996 5.01L38.8957 5.09869L38.9308 4.70387L38.6859 4.39218L37.8996 5.01ZM37.5096 9.39L37.4719 10.3893L38.4214 10.4251L38.5057 9.47869L37.5096 9.39ZM32.7396 9.21L32.7773 8.21071L32.7585 8.21H32.7396V9.21ZM29.6496 9.21V8.21H28.6713L28.6499 9.18803L29.6496 9.21ZM29.5896 11.94L28.5899 11.918L28.5674 12.94H29.5896V11.94ZM32.5596 11.94V12.94H32.574L32.5884 12.9396L32.5596 11.94ZM35.6796 11.85L36.4659 11.2322L36.1546 10.8359L35.6508 10.8504L35.6796 11.85ZM36.0096 12.27L37.0063 12.3519L37.0384 11.9608L36.7959 11.6522L36.0096 12.27ZM35.6496 16.65L35.6238 17.6497L36.5688 17.6741L36.6462 16.7319L35.6496 16.65ZM32.1696 16.56L32.1955 15.5603L32.1825 15.56H32.1696V16.56ZM29.4696 16.56V15.56H28.4956L28.47 16.5337L29.4696 16.56ZM29.4396 17.7L28.44 17.6737L28.4391 17.7047L28.4402 17.7357L29.4396 17.7ZM29.4996 19.38L28.5002 19.4157L28.5347 20.38H29.4996V19.38ZM32.3796 19.38V20.38H32.3977L32.4157 20.3793L32.3796 19.38ZM36.5733 19.8178L36.9033 20.2378L38.4759 19.0022L38.1459 18.5822L36.5733 19.8178ZM36.693 19.5381L36.333 23.9181L38.3262 24.0819L38.6862 19.7019L36.693 19.5381ZM37.3296 23H23.6496V25H37.3296V23ZM24.6482 24.0526L24.9482 18.3526L22.951 18.2474L22.651 23.9474L24.6482 24.0526ZM24.9494 18.2781L24.6494 4.56812L22.6498 4.61188L22.9498 18.3219L24.9494 18.2781ZM23.6496 5.59H37.5696V3.59H23.6496V5.59ZM36.7833 5.20782L37.1133 5.62782L38.6859 4.39218L38.3559 3.97218L36.7833 5.20782ZM36.9036 4.92131L36.5135 9.30131L38.5057 9.47869L38.8957 5.09869L36.9036 4.92131ZM37.5473 8.39071L32.7773 8.21071L32.7019 10.2093L37.4719 10.3893L37.5473 8.39071ZM32.7396 8.21H29.6496V10.21H32.7396V8.21ZM28.6499 9.18803L28.5899 11.918L30.5894 11.962L30.6494 9.23197L28.6499 9.18803ZM29.5896 12.94H32.5596V10.94H29.5896V12.94ZM32.5884 12.9396L35.7084 12.8496L35.6508 10.8504L32.5308 10.9404L32.5884 12.9396ZM34.8933 12.4678L35.2233 12.8878L36.7959 11.6522L36.4659 11.2322L34.8933 12.4678ZM35.013 12.1881L34.653 16.5681L36.6462 16.7319L37.0063 12.3519L35.013 12.1881ZM35.6755 15.6503L32.1955 15.5603L32.1438 17.5597L35.6238 17.6497L35.6755 15.6503ZM32.1696 15.56H29.4696V17.56H32.1696V15.56ZM28.47 16.5337L28.44 17.6737L30.4393 17.7263L30.4693 16.5863L28.47 16.5337ZM28.4402 17.7357L28.5002 19.4157L30.499 19.3443L30.439 17.6643L28.4402 17.7357ZM29.4996 20.38H32.3796V18.38H29.4996V20.38ZM32.4157 20.3793L37.3957 20.1993L37.3235 18.2007L32.3435 18.3807L32.4157 20.3793ZM47.163 17.61L46.1634 17.5847L46.1628 17.6086L46.1633 17.6325L47.163 17.61ZM47.223 20.28H48.223V20.2688L48.2228 20.2575L47.223 20.28ZM46.593 23.46L47.4916 23.8988L46.593 23.46ZM44.493 25.68L43.9584 24.8349L43.9505 24.84L44.493 25.68ZM40.473 27.36L39.5804 27.8107L39.9547 28.5521L40.7522 28.3202L40.473 27.36ZM38.913 24.27H37.913V24.5081L38.0204 24.7207L38.913 24.27ZM38.913 23.79L38.4729 22.8921L37.913 23.1665V23.79H38.913ZM41.043 22.23L40.2537 21.6161L40.2465 21.6253L40.2395 21.6348L41.043 22.23ZM41.673 18.21H42.673V18.1988L42.6728 18.1876L41.673 18.21ZM41.463 8.82L42.4628 8.79764L42.4401 7.78489L41.4278 7.82062L41.463 8.82ZM38.913 8.91L38.1497 9.55594L38.4632 9.9265L38.9483 9.90938L38.913 8.91ZM38.583 8.52L37.5849 8.45904L37.5604 8.8596L37.8197 9.16594L38.583 8.52ZM38.823 4.59V3.59H37.8823L37.8249 4.52904L38.823 4.59ZM47.493 4.59L48.4927 4.61534L48.5187 3.59H47.493V4.59ZM46.1633 17.6325L46.2233 20.3025L48.2228 20.2575L48.1628 17.5875L46.1633 17.6325ZM46.223 20.28C46.223 21.4341 46.0301 22.334 45.6945 23.0212L47.4916 23.8988C47.996 22.866 48.223 21.6459 48.223 20.28H46.223ZM45.6945 23.0212C45.3715 23.6825 44.8151 24.2929 43.9584 24.8349L45.0277 26.5251C46.131 25.8271 46.9746 24.9575 47.4916 23.8988L45.6945 23.0212ZM43.9505 24.84C43.1046 25.3863 41.8672 25.9133 40.1939 26.3997L40.7522 28.3202C42.5189 27.8067 43.9615 27.2137 45.0356 26.52L43.9505 24.84ZM41.3657 26.9093L39.8057 23.8193L38.0204 24.7207L39.5804 27.8107L41.3657 26.9093ZM39.913 24.27V23.79H37.913V24.27H39.913ZM39.3532 24.6879C40.4301 24.16 41.307 23.5537 41.8466 22.8252L40.2395 21.6348C39.9791 21.9863 39.4359 22.42 38.4729 22.8921L39.3532 24.6879ZM41.8324 22.8439C42.4238 22.0836 42.673 21.1381 42.673 20.1H40.673C40.673 20.8219 40.5023 21.2964 40.2537 21.6161L41.8324 22.8439ZM42.673 20.1V18.21H40.673V20.1H42.673ZM42.6728 18.1876L42.4628 8.79764L40.4633 8.84236L40.6733 18.2324L42.6728 18.1876ZM41.4278 7.82062L38.8778 7.91062L38.9483 9.90938L41.4983 9.81938L41.4278 7.82062ZM39.6764 8.26406L39.3464 7.87406L37.8197 9.16594L38.1497 9.55594L39.6764 8.26406ZM39.5812 8.58095L39.8212 4.65095L37.8249 4.52904L37.5849 8.45904L39.5812 8.58095ZM38.823 5.59H47.493V3.59H38.823V5.59ZM46.4934 4.56466L46.1634 17.5847L48.1627 17.6353L48.4927 4.61534L46.4934 4.56466ZM67.7522 24V25H69.0625L68.7167 23.7361L67.7522 24ZM61.6622 24L60.676 24.1659L60.8164 25H61.6622V24ZM61.1222 20.79L62.1083 20.6241L62.0954 20.5475L62.0709 20.4738L61.1222 20.79ZM61.0922 20.7L62.0409 20.3838L61.8178 19.7146L61.1126 19.7002L61.0922 20.7ZM58.1522 20.64L58.1726 19.6402L58.138 19.6395L58.1035 19.6412L58.1522 20.64ZM55.6922 20.76L55.6435 19.7612L54.8309 19.8008L54.7043 20.6045L55.6922 20.76ZM55.1822 24V25H56.0371L56.17 24.1555L55.1822 24ZM49.3022 24L48.3451 23.7101L47.9544 25H49.3022V24ZM55.1822 4.59V3.59H54.4402L54.2251 4.30007L55.1822 4.59ZM62.4422 4.59L63.4067 4.32613L63.2054 3.59H62.4422V4.59ZM60.1922 16.32L60.21 17.3198L61.4165 17.2983L61.1713 16.1168L60.1922 16.32ZM58.8722 9.96L59.8513 9.75678L59.686 8.96H58.8722V9.96ZM58.5122 9.96V8.96H57.742L57.5453 9.70461L58.5122 9.96ZM56.8322 16.32L55.8653 16.0646L55.5398 17.2971L56.8143 17.3198L56.8322 16.32ZM58.5122 16.35L58.4943 17.3498L58.5122 17.3502L58.53 17.3498L58.5122 16.35ZM67.7522 23H61.6622V25H67.7522V23ZM62.6483 23.8341L62.1083 20.6241L60.136 20.9559L60.676 24.1659L62.6483 23.8341ZM62.0709 20.4738L62.0409 20.3838L60.1435 21.0162L60.1735 21.1062L62.0709 20.4738ZM61.1126 19.7002L58.1726 19.6402L58.1318 21.6398L61.0718 21.6998L61.1126 19.7002ZM58.1035 19.6412L55.6435 19.7612L55.7409 21.7588L58.2009 21.6388L58.1035 19.6412ZM54.7043 20.6045L54.1944 23.8445L56.17 24.1555L56.68 20.9155L54.7043 20.6045ZM55.1822 23H49.3022V25H55.1822V23ZM50.2592 24.2899L56.1392 4.87992L54.2251 4.30007L48.3451 23.7101L50.2592 24.2899ZM55.1822 5.59H62.4422V3.59H55.1822V5.59ZM61.4776 4.85387L66.7876 24.2639L68.7167 23.7361L63.4067 4.32613L61.4776 4.85387ZM61.1713 16.1168L59.8513 9.75678L57.8931 10.1632L59.2131 16.5232L61.1713 16.1168ZM58.8722 8.96H58.5122V10.96H58.8722V8.96ZM57.5453 9.70461L55.8653 16.0646L57.799 16.5754L59.479 10.2154L57.5453 9.70461ZM56.8143 17.3198L58.4943 17.3498L58.53 15.3502L56.85 15.3202L56.8143 17.3198ZM58.53 17.3498L60.21 17.3198L60.1743 15.3202L58.4943 15.3502L58.53 17.3498Z" fill="#021B2B"/>
</g>
<g filter="url(#filter1_d_27076_119)">
<path d="M64.8 77L65.6 98H45.5L46.5 79L46.4 74L35.6 73.8L26.3 74.1L26.2 77L27 98H6.9L7.9 79L6.9 33.3H27.3L26.7 57.8L36.8 58L46 57.8L45.5 33.3H65.9L64.8 77ZM122.794 82L123.894 83.4L122.694 98H77.0938L78.0938 79L77.0938 33.3H123.494L124.594 34.7L123.294 49.3L107.394 48.7H97.0938L96.8938 57.8H106.794L117.194 57.5L118.294 58.9L117.094 73.5L105.494 73.2H96.4938L96.3938 77L96.5938 82.6H106.194L122.794 82ZM173.795 72.5C178.595 79.9667 183.395 86.9 188.195 93.3L187.895 95.5C181.095 97.5667 174.395 98.8 167.795 99.2L165.895 97.6L164.695 95.1C164.162 94.0333 163.095 91.8 161.495 88.4C159.895 84.9333 158.495 81.7 157.295 78.7H150.595L151.295 98H131.195L132.195 79L131.195 33.3L161.895 33.2C169.162 33.2 174.762 34.9333 178.695 38.4C182.629 41.8 184.595 46.7333 184.595 53.2C184.595 57 183.629 60.5667 181.695 63.9C179.829 67.2333 177.195 70.1 173.795 72.5ZM163.495 55.2C163.495 52.5333 162.795 50.5667 161.395 49.3C160.062 47.9667 157.862 47.2333 154.795 47.1L151.195 47.4L150.795 64.1L158.095 64.5C159.962 63.6333 161.329 62.4667 162.195 61C163.062 59.5333 163.495 57.6 163.495 55.2ZM221.405 32.1C230.805 32.1 238.071 34.9 243.205 40.5C248.338 46.0333 250.905 53.8667 250.905 64C250.905 75.2 248.071 83.8667 242.405 90C236.805 96.1333 228.838 99.2 218.505 99.2C209.105 99.2 201.838 96.4 196.705 90.8C191.571 85.1333 189.005 77.1333 189.005 66.8C189.005 55.7333 191.805 47.2 197.405 41.2C203.071 35.1333 211.071 32.1 221.405 32.1ZM219.605 48.1C217.005 48.1 215.038 48.5667 213.705 49.5C212.371 50.3667 211.405 51.9333 210.805 54.2C210.271 56.4667 210.005 59.7667 210.005 64.1C210.005 69.6333 210.305 73.8333 210.905 76.7C211.505 79.5667 212.505 81.5667 213.905 82.7C215.371 83.8333 217.505 84.4 220.305 84.4C222.905 84.4 224.871 83.9667 226.205 83.1C227.538 82.1667 228.471 80.5667 229.005 78.3C229.605 75.9667 229.905 72.6333 229.905 68.3C229.905 62.8333 229.605 58.6667 229.005 55.8C228.405 52.9333 227.371 50.9333 225.905 49.8C224.505 48.6667 222.405 48.1 219.605 48.1ZM231.305 6.6L236.205 18.3L235.605 19.9C226.805 22.7 218.871 25 211.805 26.8L210.105 26.4L207.105 18.5C214.971 14.5 222.471 10.4 229.605 6.2L231.305 6.6ZM276.863 77L277.663 98H257.563L258.563 79L257.563 33.3H277.962L276.863 77Z" fill="#FF0841"/>
<path d="M64.8 77L63.8003 76.9748L63.7995 77.0065L63.8007 77.0381L64.8 77ZM65.6 98V99H66.6388L66.5993 97.9619L65.6 98ZM45.5 98L44.5014 97.9474L44.446 99H45.5V98ZM46.5 79L47.4986 79.0526L47.5005 79.0163L47.4998 78.98L46.5 79ZM46.4 74L47.3998 73.98L47.3806 73.018L46.4185 73.0002L46.4 74ZM35.6 73.8L35.6185 72.8002L35.5931 72.7997L35.5678 72.8005L35.6 73.8ZM26.3 74.1L26.2678 73.1005L25.3328 73.1307L25.3006 74.0655L26.3 74.1ZM26.2 77L25.2006 76.9655L25.1993 77.0018L25.2007 77.0381L26.2 77ZM27 98V99H28.0388L27.9993 97.9619L27 98ZM6.9 98L5.90138 97.9474L5.84598 99H6.9V98ZM7.9 79L8.89862 79.0526L8.90058 79.0154L8.89976 78.9781L7.9 79ZM6.9 33.3V32.3H5.87788L5.90024 33.3219L6.9 33.3ZM27.3 33.3L28.2997 33.3245L28.3248 32.3H27.3V33.3ZM26.7 57.8L25.7003 57.7755L25.6757 58.7799L26.6802 58.7998L26.7 57.8ZM36.8 58L36.7802 58.9998L36.801 59.0002L36.8217 58.9998L36.8 58ZM46 57.8L46.0217 58.7998L47.0202 58.7781L46.9998 57.7796L46 57.8ZM45.5 33.3V32.3H44.4794L44.5002 33.3204L45.5 33.3ZM65.9 33.3L66.8997 33.3252L66.9255 32.3H65.9V33.3ZM63.8007 77.0381L64.6007 98.0381L66.5993 97.9619L65.7993 76.9619L63.8007 77.0381ZM65.6 97H45.5V99H65.6V97ZM46.4986 98.0526L47.4986 79.0526L45.5014 78.9474L44.5014 97.9474L46.4986 98.0526ZM47.4998 78.98L47.3998 73.98L45.4002 74.02L45.5002 79.02L47.4998 78.98ZM46.4185 73.0002L35.6185 72.8002L35.5815 74.7998L46.3815 74.9998L46.4185 73.0002ZM35.5678 72.8005L26.2678 73.1005L26.3322 75.0995L35.6322 74.7995L35.5678 72.8005ZM25.3006 74.0655L25.2006 76.9655L27.1994 77.0345L27.2994 74.1345L25.3006 74.0655ZM25.2007 77.0381L26.0007 98.0381L27.9993 97.9619L27.1993 76.9619L25.2007 77.0381ZM27 97H6.9V99H27V97ZM7.89862 98.0526L8.89862 79.0526L6.90138 78.9474L5.90138 97.9474L7.89862 98.0526ZM8.89976 78.9781L7.89976 33.2781L5.90024 33.3219L6.90024 79.0219L8.89976 78.9781ZM6.9 34.3H27.3V32.3H6.9V34.3ZM26.3003 33.2755L25.7003 57.7755L27.6997 57.8245L28.2997 33.3245L26.3003 33.2755ZM26.6802 58.7998L36.7802 58.9998L36.8198 57.0002L26.7198 56.8002L26.6802 58.7998ZM36.8217 58.9998L46.0217 58.7998L45.9783 56.8002L36.7783 57.0002L36.8217 58.9998ZM46.9998 57.7796L46.4998 33.2796L44.5002 33.3204L45.0002 57.8204L46.9998 57.7796ZM45.5 34.3H65.9V32.3H45.5V34.3ZM64.9003 33.2748L63.8003 76.9748L65.7997 77.0252L66.8997 33.3252L64.9003 33.2748ZM122.794 82L123.58 81.3822L123.266 80.9823L122.758 81.0007L122.794 82ZM123.894 83.4L124.89 83.4819L124.923 83.0908L124.68 82.7822L123.894 83.4ZM122.694 98V99H123.615L123.69 98.0819L122.694 98ZM77.0938 98L76.0951 97.9474L76.0397 99H77.0938V98ZM78.0938 79L79.0924 79.0526L79.0943 79.0154L79.0935 78.9781L78.0938 79ZM77.0938 33.3V32.3H76.0716L76.094 33.3219L77.0938 33.3ZM123.494 33.3L124.28 32.6822L123.98 32.3H123.494V33.3ZM124.594 34.7L125.59 34.7887L125.625 34.3939L125.38 34.0822L124.594 34.7ZM123.294 49.3L123.256 50.2993L124.206 50.3351L124.29 49.3887L123.294 49.3ZM107.394 48.7L107.431 47.7007L107.413 47.7H107.394V48.7ZM97.0938 48.7V47.7H96.1155L96.094 48.678L97.0938 48.7ZM96.8938 57.8L95.894 57.778L95.8715 58.8H96.8938V57.8ZM106.794 57.8V58.8H106.808L106.823 58.7996L106.794 57.8ZM117.194 57.5L117.98 56.8822L117.669 56.4859L117.165 56.5004L117.194 57.5ZM118.294 58.9L119.29 58.9819L119.323 58.5908L119.08 58.2822L118.294 58.9ZM117.094 73.5L117.068 74.4997L118.013 74.5241L118.09 73.5819L117.094 73.5ZM105.494 73.2L105.52 72.2003L105.507 72.2H105.494V73.2ZM96.4938 73.2V72.2H95.5197L95.4941 73.1737L96.4938 73.2ZM96.3938 77L95.3941 76.9737L95.3933 77.0047L95.3944 77.0357L96.3938 77ZM96.5938 82.6L95.5944 82.6357L95.6288 83.6H96.5938V82.6ZM106.194 82.6V83.6H106.212L106.23 83.5993L106.194 82.6ZM122.007 82.6178L123.107 84.0178L124.68 82.7822L123.58 81.3822L122.007 82.6178ZM122.897 83.3181L121.697 97.9181L123.69 98.0819L124.89 83.4819L122.897 83.3181ZM122.694 97H77.0938V99H122.694V97ZM78.0924 98.0526L79.0924 79.0526L77.0951 78.9474L76.0951 97.9474L78.0924 98.0526ZM79.0935 78.9781L78.0935 33.2781L76.094 33.3219L77.094 79.0219L79.0935 78.9781ZM77.0938 34.3H123.494V32.3H77.0938V34.3ZM122.707 33.9178L123.807 35.3178L125.38 34.0822L124.28 32.6822L122.707 33.9178ZM123.598 34.6113L122.298 49.2113L124.29 49.3887L125.59 34.7887L123.598 34.6113ZM123.331 48.3007L107.431 47.7007L107.356 49.6993L123.256 50.2993L123.331 48.3007ZM107.394 47.7H97.0938V49.7H107.394V47.7ZM96.094 48.678L95.894 57.778L97.8935 57.822L98.0935 48.722L96.094 48.678ZM96.8938 58.8H106.794V56.8H96.8938V58.8ZM106.823 58.7996L117.223 58.4996L117.165 56.5004L106.765 56.8004L106.823 58.7996ZM116.407 58.1178L117.507 59.5178L119.08 58.2822L117.98 56.8822L116.407 58.1178ZM117.297 58.8181L116.097 73.4181L118.09 73.5819L119.29 58.9819L117.297 58.8181ZM117.12 72.5003L105.52 72.2003L105.468 74.1997L117.068 74.4997L117.12 72.5003ZM105.494 72.2H96.4938V74.2H105.494V72.2ZM95.4941 73.1737L95.3941 76.9737L97.3934 77.0263L97.4934 73.2263L95.4941 73.1737ZM95.3944 77.0357L95.5944 82.6357L97.5931 82.5643L97.3931 76.9643L95.3944 77.0357ZM96.5938 83.6H106.194V81.6H96.5938V83.6ZM106.23 83.5993L122.83 82.9993L122.758 81.0007L106.158 81.6007L106.23 83.5993ZM173.795 72.5L173.219 71.683L172.436 72.2353L172.954 73.0408L173.795 72.5ZM188.195 93.3L189.186 93.4351L189.242 93.0284L188.995 92.7L188.195 93.3ZM187.895 95.5L188.186 96.4568L188.8 96.2704L188.886 95.6351L187.895 95.5ZM167.795 99.2L167.151 99.9649L167.457 100.222L167.856 100.198L167.795 99.2ZM165.895 97.6L164.994 98.0327L165.087 98.2265L165.251 98.3649L165.895 97.6ZM164.695 95.1L165.597 94.6673L165.593 94.66L165.59 94.6528L164.695 95.1ZM161.495 88.4L160.587 88.8191L160.59 88.8258L161.495 88.4ZM157.295 78.7L158.224 78.3286L157.972 77.7H157.295V78.7ZM150.595 78.7V77.7H149.558L149.596 78.7362L150.595 78.7ZM151.295 98V99H152.332L152.295 97.9638L151.295 98ZM131.195 98L130.197 97.9474L130.141 99H131.195V98ZM132.195 79L133.194 79.0526L133.196 79.0154L133.195 78.9781L132.195 79ZM131.195 33.3L131.192 32.3L130.173 32.3033L130.196 33.3219L131.195 33.3ZM161.895 33.2V32.2L161.892 32.2L161.895 33.2ZM178.695 38.4L178.034 39.1502L178.041 39.1565L178.695 38.4ZM181.695 63.9L180.83 63.3983L180.826 63.4048L180.823 63.4114L181.695 63.9ZM161.395 49.3L160.688 50.0071L160.706 50.0248L160.724 50.0415L161.395 49.3ZM154.795 47.1L154.839 46.1009L154.775 46.0982L154.712 46.1035L154.795 47.1ZM151.195 47.4L151.112 46.4035L150.217 46.478L150.196 47.3761L151.195 47.4ZM150.795 64.1L149.796 64.0761L149.772 65.0454L150.741 65.0985L150.795 64.1ZM158.095 64.5L158.041 65.4985L158.29 65.5122L158.516 65.407L158.095 64.5ZM162.195 61L161.334 60.4913V60.4913L162.195 61ZM172.954 73.0408C177.766 80.5255 182.579 87.4788 187.395 93.9L188.995 92.7C184.211 86.3212 179.425 79.4078 174.636 71.9592L172.954 73.0408ZM187.204 93.1649L186.904 95.3649L188.886 95.6351L189.186 93.4351L187.204 93.1649ZM187.605 94.5432C180.874 96.5888 174.251 97.8069 167.735 98.2018L167.856 100.198C174.54 99.7931 181.317 98.5445 188.186 96.4568L187.605 94.5432ZM168.439 98.4351L166.539 96.8351L165.251 98.3649L167.151 99.9649L168.439 98.4351ZM166.797 97.1673L165.597 94.6673L163.794 95.5327L164.994 98.0327L166.797 97.1673ZM165.59 94.6528C165.063 93.5987 164.001 91.3764 162.4 87.9742L160.59 88.8258C162.189 92.2236 163.261 94.468 163.801 95.5472L165.59 94.6528ZM162.403 87.9809C160.809 84.5273 159.416 81.31 158.224 78.3286L156.367 79.0714C157.574 82.09 158.981 85.3394 160.587 88.8191L162.403 87.9809ZM157.295 77.7H150.595V79.7H157.295V77.7ZM149.596 78.7362L150.296 98.0362L152.295 97.9638L151.595 78.6638L149.596 78.7362ZM151.295 97H131.195V99H151.295V97ZM132.194 98.0526L133.194 79.0526L131.197 78.9474L130.197 97.9474L132.194 98.0526ZM133.195 78.9781L132.195 33.2781L130.196 33.3219L131.196 79.0219L133.195 78.9781ZM131.199 34.3L161.899 34.2L161.892 32.2L131.192 32.3L131.199 34.3ZM161.895 34.2C169.012 34.2 174.343 35.8974 178.034 39.1502L179.357 37.6498C175.181 33.9693 169.311 32.2 161.895 32.2V34.2ZM178.041 39.1565C181.703 42.3216 183.595 46.9471 183.595 53.2H185.595C185.595 46.5196 183.554 41.2784 179.349 37.6435L178.041 39.1565ZM183.595 53.2C183.595 56.8212 182.677 60.2151 180.83 63.3983L182.56 64.4017C184.581 60.9182 185.595 57.1788 185.595 53.2H183.595ZM180.823 63.4114C179.035 66.6033 176.508 69.3612 173.219 71.683L174.372 73.317C177.883 70.8387 180.622 67.8634 182.568 64.3886L180.823 63.4114ZM164.495 55.2C164.495 52.3705 163.751 50.0824 162.066 48.5585L160.724 50.0415C161.84 51.0509 162.495 52.6961 162.495 55.2H164.495ZM162.102 48.5929C160.51 47.0002 158.007 46.2387 154.839 46.1009L154.752 48.0991C157.717 48.228 159.614 48.9331 160.688 50.0071L162.102 48.5929ZM154.712 46.1035L151.112 46.4035L151.278 48.3965L154.878 48.0965L154.712 46.1035ZM150.196 47.3761L149.796 64.0761L151.795 64.1239L152.195 47.4239L150.196 47.3761ZM150.741 65.0985L158.041 65.4985L158.15 63.5015L150.85 63.1015L150.741 65.0985ZM158.516 65.407C160.528 64.4731 162.067 63.1831 163.056 61.5087L161.334 60.4913C160.59 61.7502 159.396 62.7935 157.674 63.593L158.516 65.407ZM163.056 61.5087C164.044 59.8375 164.495 57.7095 164.495 55.2H162.495C162.495 57.4905 162.08 59.2292 161.334 60.4913L163.056 61.5087ZM243.205 40.5L242.468 41.1757L242.472 41.1801L243.205 40.5ZM242.405 90L241.67 89.3214L241.666 89.3257L242.405 90ZM196.705 90.8L195.964 91.4714L195.968 91.4757L196.705 90.8ZM197.405 41.2L196.674 40.5174L196.674 40.5177L197.405 41.2ZM213.705 49.5L214.25 50.3384L214.264 50.3291L214.278 50.3192L213.705 49.5ZM210.805 54.2L209.838 53.9441L209.834 53.9575L209.831 53.971L210.805 54.2ZM210.905 76.7L211.883 76.4951L210.905 76.7ZM213.905 82.7L213.275 83.4772L213.284 83.4844L213.293 83.4913L213.905 82.7ZM226.205 83.1L226.75 83.9384L226.764 83.9291L226.778 83.9192L226.205 83.1ZM229.005 78.3L228.036 78.051L228.034 78.0609L228.031 78.071L229.005 78.3ZM225.905 49.8L225.275 50.5772L225.284 50.5844L225.293 50.5913L225.905 49.8ZM231.305 6.6L232.227 6.2137L232.03 5.74337L231.534 5.62658L231.305 6.6ZM236.205 18.3L237.141 18.6511L237.28 18.2796L237.127 17.9137L236.205 18.3ZM235.605 19.9L235.908 20.8529L236.371 20.7057L236.541 20.2511L235.605 19.9ZM211.805 26.8L211.576 27.7734L211.814 27.8295L212.052 27.7691L211.805 26.8ZM210.105 26.4L209.17 26.755L209.358 27.2517L209.876 27.3734L210.105 26.4ZM207.105 18.5L206.651 17.6086L205.851 18.0156L206.17 18.855L207.105 18.5ZM229.605 6.2L229.834 5.22658L229.443 5.13467L229.097 5.33827L229.605 6.2ZM221.405 33.1C230.596 33.1 237.567 35.8298 242.468 41.1757L243.942 39.8243C238.576 33.9702 231.013 31.1 221.405 31.1V33.1ZM242.472 41.1801C247.382 46.4728 249.905 54.0309 249.905 64H251.905C251.905 53.7025 249.294 45.5939 243.938 39.8199L242.472 41.1801ZM249.905 64C249.905 75.0359 247.115 83.4283 241.67 89.3214L243.139 90.6786C249.028 84.305 251.905 75.3641 251.905 64H249.905ZM241.666 89.3257C236.3 95.2028 228.631 98.2 218.505 98.2V100.2C229.045 100.2 237.309 97.0639 243.143 90.6743L241.666 89.3257ZM218.505 98.2C209.313 98.2 202.342 95.4702 197.442 90.1243L195.968 91.4757C201.334 97.3298 208.896 100.2 218.505 100.2V98.2ZM197.446 90.1286C192.53 84.7023 190.005 76.9735 190.005 66.8H188.005C188.005 77.2931 190.613 85.5644 195.964 91.4714L197.446 90.1286ZM190.005 66.8C190.005 55.8968 192.761 47.6405 198.136 41.8823L196.674 40.5177C190.848 46.7595 188.005 55.5699 188.005 66.8H190.005ZM198.135 41.8826C203.569 36.0659 211.276 33.1 221.405 33.1V31.1C210.867 31.1 202.574 34.2008 196.674 40.5174L198.135 41.8826ZM219.605 47.1C216.912 47.1 214.706 47.5785 213.131 48.6808L214.278 50.3192C215.37 49.5549 217.097 49.1 219.605 49.1V47.1ZM213.16 48.6616C211.539 49.7153 210.472 51.5492 209.838 53.9441L211.771 54.4559C212.337 52.3175 213.204 51.0181 214.25 50.3384L213.16 48.6616ZM209.831 53.971C209.271 56.3514 209.005 59.7434 209.005 64.1H211.005C211.005 59.7899 211.272 56.5819 211.778 54.429L209.831 53.971ZM209.005 64.1C209.005 69.6529 209.304 73.9355 209.926 76.9049L211.883 76.4951C211.305 73.7312 211.005 69.6138 211.005 64.1H209.005ZM209.926 76.9049C210.546 79.8658 211.615 82.1327 213.275 83.4772L214.534 81.9228C213.395 81.0006 212.464 79.2675 211.883 76.4951L209.926 76.9049ZM213.293 83.4913C215.004 84.8135 217.391 85.4 220.305 85.4V83.4C217.618 83.4 215.738 82.8531 214.516 81.9087L213.293 83.4913ZM220.305 85.4C222.987 85.4 225.181 84.9581 226.75 83.9384L225.66 82.2616C224.562 82.9753 222.822 83.4 220.305 83.4V85.4ZM226.778 83.9192C228.385 82.7947 229.412 80.9329 229.978 78.529L228.031 78.071C227.53 80.2004 226.691 81.5387 225.631 82.2808L226.778 83.9192ZM229.973 78.549C230.604 76.0941 230.905 72.6619 230.905 68.3H228.905C228.905 72.6047 228.605 75.8392 228.036 78.051L229.973 78.549ZM230.905 68.3C230.905 62.8128 230.605 58.564 229.983 55.5951L228.026 56.0049C228.605 58.7693 228.905 62.8539 228.905 68.3H230.905ZM229.983 55.5951C229.361 52.6233 228.254 50.3513 226.516 49.0087L225.293 50.5913C226.489 51.5153 227.448 53.2433 228.026 56.0049L229.983 55.5951ZM226.534 49.0228C224.881 47.6845 222.514 47.1 219.605 47.1V49.1C222.296 49.1 224.129 49.6488 225.275 50.5772L226.534 49.0228ZM230.382 6.98629L235.282 18.6863L237.127 17.9137L232.227 6.2137L230.382 6.98629ZM235.268 17.9489L234.668 19.5489L236.541 20.2511L237.141 18.6511L235.268 17.9489ZM235.301 18.9471C226.515 21.7426 218.601 24.0368 211.558 25.8309L212.052 27.7691C219.141 25.9632 227.094 23.6574 235.908 20.8529L235.301 18.9471ZM212.034 25.8266L210.334 25.4266L209.876 27.3734L211.576 27.7734L212.034 25.8266ZM211.04 26.045L208.04 18.145L206.17 18.855L209.17 26.755L211.04 26.045ZM207.558 19.3914C215.442 15.3827 222.96 11.2728 230.112 7.06172L229.097 5.33827C221.983 9.52717 214.501 13.6173 206.651 17.6086L207.558 19.3914ZM229.376 7.17341L231.076 7.57341L231.534 5.62658L229.834 5.22658L229.376 7.17341ZM276.862 77L275.863 76.9748L275.862 77.0065L275.863 77.0381L276.862 77ZM277.663 98V99H278.701L278.662 97.9619L277.663 98ZM257.562 98L256.564 97.9474L256.508 99H257.562V98ZM258.562 79L259.561 79.0526L259.563 79.0154L259.562 78.9781L258.562 79ZM257.562 33.3V32.3H256.54L256.563 33.3219L257.562 33.3ZM277.962 33.3L278.962 33.3252L278.988 32.3H277.962V33.3ZM275.863 77.0381L276.663 98.0381L278.662 97.9619L277.862 76.9619L275.863 77.0381ZM277.663 97H257.562V99H277.663V97ZM258.561 98.0526L259.561 79.0526L257.564 78.9474L256.564 97.9474L258.561 98.0526ZM259.562 78.9781L258.562 33.2781L256.563 33.3219L257.563 79.0219L259.562 78.9781ZM257.562 34.3H277.962V32.3H257.562V34.3ZM276.963 33.2748L275.863 76.9748L277.862 77.0252L278.962 33.3252L276.963 33.2748Z" fill="#FF0841"/>
</g>
<path d="M317.4 23.15L311.85 65.9L295.65 68.15L292.95 65.6L291 24.35L293.4 21.2L314.1 20L317.4 23.15ZM302.85 72.5C306.85 72.5 309.95 73.65 312.15 75.95C314.35 78.15 315.45 81.3 315.45 85.4C315.45 89.7 314.2 93.1 311.7 95.6C309.3 98.1 306 99.35 301.8 99.35C297.7 99.35 294.55 98.25 292.35 96.05C290.15 93.85 289.05 90.7 289.05 86.6C289.05 82.3 290.3 78.9 292.8 76.4C295.3 73.8 298.65 72.5 302.85 72.5Z" fill="#FF0841"/>
<defs>
<filter id="filter0_d_27076_119" x="2.54001" y="4.22998" width="69.2122" height="31.13" filterUnits="userSpaceOnUse" color-interpolation-filters="sRGB">
<feFlood flood-opacity="0" result="BackgroundImageFix"/>
<feColorMatrix in="SourceAlpha" type="matrix" values="0 0 0 0 0 0 0 0 0 0 0 0 0 0 0 0 0 0 127 0" result="hardAlpha"/>
<feOffset dy="4"/>
<feGaussianBlur stdDeviation="2"/>
<feComposite in2="hardAlpha" operator="out"/>
<feColorMatrix type="matrix" values="0 0 0 0 0 0 0 0 0 0 0 0 0 0 0 0 0 0 0.25 0"/>
<feBlend mode="normal" in2="BackgroundImageFix" result="effect1_dropShadow_27076_119"/>
<feBlend mode="normal" in="SourceGraphic" in2="effect1_dropShadow_27076_119" result="shape"/>
</filter>
<filter id="filter1_d_27076_119" x="2.89999" y="6.19995" width="279.063" height="101" filterUnits="userSpaceOnUse" color-interpolation-filters="sRGB">
<feFlood flood-opacity="0" result="BackgroundImageFix"/>
<feColorMatrix in="SourceAlpha" type="matrix" values="0 0 0 0 0 0 0 0 0 0 0 0 0 0 0 0 0 0 127 0" result="hardAlpha"/>
<feOffset dy="4"/>
<feGaussianBlur stdDeviation="2"/>
<feComposite in2="hardAlpha" operator="out"/>
<feColorMatrix type="matrix" values="0 0 0 0 0 0 0 0 0 0 0 0 0 0 0 0 0 0 0.25 0"/>
<feBlend mode="normal" in2="BackgroundImageFix" result="effect1_dropShadow_27076_119"/>
<feBlend mode="normal" in="SourceGraphic" in2="effect1_dropShadow_27076_119" result="shape"/>
</filter>
</defs>
</svg>
