<svg width="26" height="26" viewBox="0 0 26 26" fill="none" xmlns="http://www.w3.org/2000/svg">
<path d="M10.8605 2.62712C11.1855 2.30212 11.5782 2.13962 12.0386 2.13962C12.499 2.13962 12.8917 2.30212 13.2167 2.62712L23.373 12.7834C23.5535 12.9639 23.6754 13.1535 23.7386 13.3521C23.8018 13.5507 23.8334 13.7584 23.8334 13.975V22.2084C23.8334 22.6778 23.6799 23.066 23.373 23.373C23.066 23.6799 22.6778 23.8334 22.2084 23.8334H13.975C13.7584 23.8334 13.5417 23.8018 13.325 23.7386C13.1084 23.6754 12.9098 23.5535 12.7292 23.373L2.62712 13.2709C2.28407 12.9278 2.11254 12.5261 2.11254 12.0657C2.11254 11.6052 2.28407 11.2035 2.62712 10.8605L10.8605 2.62712ZM11.9709 3.73754L3.73754 11.9709L13.975 22.2084H22.2084V13.975L11.9709 3.73754ZM19.3646 17.9834C18.9855 17.9834 18.6559 18.1233 18.3761 18.4032C18.0962 18.683 17.9563 19.0125 17.9563 19.3917C17.9563 19.7709 18.0962 20.1004 18.3761 20.3802C18.6559 20.6601 18.9855 20.8 19.3646 20.8C19.7438 20.8 20.0733 20.6601 20.3532 20.3802C20.633 20.1004 20.773 19.7709 20.773 19.3917C20.773 19.0125 20.633 18.683 20.3532 18.4032C20.0733 18.1233 19.7438 17.9834 19.3646 17.9834Z" fill="#737380"/>
</svg>
