<svg width="40" height="40" viewBox="0 0 40 40" fill="none" xmlns="http://www.w3.org/2000/svg">
<path d="M16.7082 4.04165C17.2082 3.54165 17.8123 3.29166 18.5207 3.29166C19.229 3.29166 19.8332 3.54165 20.3332 4.04165L35.9582 19.6667C36.2359 19.9444 36.4234 20.2361 36.5207 20.5417C36.6179 20.8472 36.6665 21.1667 36.6665 21.5V34.1667C36.6665 34.8889 36.4304 35.4861 35.9582 35.9583C35.4859 36.4305 34.8887 36.6667 34.1665 36.6667H21.4998C21.1665 36.6667 20.8332 36.618 20.4998 36.5208C20.1665 36.4236 19.8609 36.2361 19.5832 35.9583L4.0415 20.4167C3.51372 19.8889 3.24984 19.2708 3.24984 18.5625C3.24984 17.8542 3.51372 17.2361 4.0415 16.7083L16.7082 4.04165ZM18.4165 5.74999L5.74984 18.4167L21.4998 34.1667H34.1665V21.5L18.4165 5.74999ZM29.7915 27.6667C29.2082 27.6667 28.7012 27.8819 28.2707 28.3125C27.8401 28.743 27.6248 29.25 27.6248 29.8333C27.6248 30.4167 27.8401 30.9236 28.2707 31.3542C28.7012 31.7847 29.2082 32 29.7915 32C30.3748 32 30.8818 31.7847 31.3123 31.3542C31.7429 30.9236 31.9582 30.4167 31.9582 29.8333C31.9582 29.25 31.7429 28.743 31.3123 28.3125C30.8818 27.8819 30.3748 27.6667 29.7915 27.6667Z" fill="#737380"/>
</svg>
